<?xml version="1.0" encoding="UTF-8" standalone="no"?>
<!-- Created with Inkscape (http://www.inkscape.org/) -->
<svg xmlns:inkscape="http://www.inkscape.org/namespaces/inkscape" xmlns:rdf="http://www.w3.org/1999/02/22-rdf-syntax-ns#" xmlns="http://www.w3.org/2000/svg" xmlns:xlink="http://www.w3.org/1999/xlink" xmlns:ns1="http://sozi.baierouge.fr" xmlns:cc="http://creativecommons.org/ns#" xmlns:sodipodi="http://sodipodi.sourceforge.net/DTD/sodipodi-0.dtd" xmlns:dc="http://purl.org/dc/elements/1.1/" id="svg2" xml:space="preserve" viewBox="0 0 121.06 115.75" version="1.1" inkscape:version="0.91 r13725">
  <g id="g10" transform="matrix(1.25,0,0,-1.25,0,115.75)">
    <g id="g12">
      <path id="path14" style="fill-rule:evenodd;fill:#8f4141" d="m83.449 1.252c-1.5-0.601-2.949-0.851-4.347-0.75-1.5 0.063-2.551 0.848-3.153 2.348-0.566 1.367-0.515 2.352 0.153 2.949 0.796 0.668 2.199 2.336 4.199 5l7-1.648-2.051-6.949c-0.469-0.336-1.066-0.653-1.801-0.95z" inkscape:connector-curvature="0"/>
      <path id="path16" style="fill-rule:evenodd;fill:#ca5c5c" d="m89.801 87.202-5.5-12-12.653 10.5 14.653 3 3.5-1.5z" inkscape:connector-curvature="0"/>
      <path id="path18" style="fill-rule:evenodd;fill:#c7b48d" d="m92.102 87.35 2.949 1.699 1-1.25 0.25-69.25-10.403-11.199 0.454 77 1.847 1.152c1.469 0.864 2.77 1.481 3.903 1.848z" inkscape:connector-curvature="0"/>
      <path id="path20" style="fill-rule:evenodd;fill:#ffe2a8" d="m94.551 80.35v4.652c-0.067 1.532-0.235 2.231-0.5 2.098l-5.801-3.75c-0.969-0.699-1.418-2.898-1.352-6.598v-56.851c0-5.5 0.168-8.184 0.5-8.051l7.352 8.602c0.133 0.398 0.184 1.75 0.148 4.05-0.031 2.7-0.046 4.567-0.046 5.598l-0.301 50.25zm-2.449 7 2.949 1.699 0.847-1.047 0.301-65.851c0-1.965-0.035-3.235-0.097-3.801l-10.204-11 0.454 77 1.847 1.152c1.469 0.864 2.77 1.481 3.903 1.848z" inkscape:connector-curvature="0"/>
      <path id="path22" style="fill-rule:evenodd;fill:#994848" d="m85.199 84.549c0.301 1.567 0.668 2.418 1.102 2.551l9.301 4.301c0.664 1.168 1-0.852 1-6.051l0.25-63.801c0-3.367-0.235-5.148-0.704-5.347l-10.898-14c-0.398-0.368-0.648 1.05-0.75 4.25-0.031 1.265-0.051 3.8-0.051 7.597l0.403 65.403c0 1.933 0.117 3.632 0.347 5.097zm10-0.199c-0.066 1.535-0.23 2.234-0.5 2.102l-5.801-3.75c-0.964-0.668-1.414-2.852-1.347-6.551v-56.899c0-5.535 0.183-8.203 0.551-8l7.296 8.598c0.133 0.402 0.204 1.734 0.204 4-0.071 2.699-0.102 4.566-0.102 5.602l-0.301 50.25v4.648z" inkscape:connector-curvature="0"/>
      <path id="path24" style="fill-rule:evenodd;fill:#ffe2a8" d="m94.602 78.151c0.062-0.633-0.188-2.067-0.75-4.301-0.602-2.367-0.883-4.051-0.852-5.051-0.266-20.133-0.398-30.582-0.398-31.347 0-0.836 0.164-3.02 0.5-6.551 0.23-3.332 0.148-5.367-0.25-6.102-0.102-0.23-0.168-0.797-0.204-1.699 0-0.734-0.164-1.234-0.5-1.5-0.464-0.398-1.117-0.566-1.949-0.5-0.867 0.066-1.367 0.418-1.5 1.051-0.23 1.101-0.23 3.051 0 5.851 0.332 2.934 0.52 4.731 0.551 5.399 0.332 2.066 0.602 4.051 0.801 5.949 0.433 3.633 0.582 7.117 0.449 10.449-0.531 11.067-0.766 17.817-0.699 20.25 0.035 2.035 0.215 3.852 0.551 5.453 0.367 1.832 0.847 2.883 1.449 3.149 0.465 0.199 0.98 0.285 1.551 0.25 0.765-0.035 1.179-0.285 1.25-0.75z" inkscape:connector-curvature="0"/>
      <path id="path26" style="fill-rule:evenodd;fill:#994848" d="m93.801 78.651c0.73 0.301 1.133-0.668 1.199-2.899 0.031-1.336 0.031-3.652 0-6.953-0.266-20.133-0.398-30.582-0.398-31.347 0-0.836 0.164-3.02 0.5-6.551 0.23-3.332 0.148-5.367-0.25-6.102-0.602-1.23-1.336-2.25-2.204-3.047-1.066-0.937-1.714-0.8-1.949 0.399-0.23 1.101-0.23 3.051 0 5.851 0.332 2.93 0.52 4.731 0.551 5.399 0.332 2.066 0.602 4.051 0.801 5.949 0.433 3.633 0.582 7.117 0.449 10.449-0.531 11.067-0.766 17.817-0.699 20.25 0.031 2.035 0.215 3.852 0.551 5.453 0.367 1.832 0.847 2.883 1.449 3.149z" inkscape:connector-curvature="0"/>
      <path id="path28" style="fill-rule:evenodd;fill:#ffe8bd" d="m89.801 91.702 1.75-0.602-8.102-4c-15.832-0.098-31.465 0.016-46.898 0.352-9.633 0.199-16.317 0.464-20.051 0.8l-2.699 0.45 13.398 3.398 2.352 0.25 60.25-0.648z" inkscape:connector-curvature="0"/>
      <path id="path30" style="fill-rule:evenodd;fill:#ebcf99" d="m91.551 91.1-8.102-4h-8.699c3.469 0.094 5.969 0.324 7.5 0.699l4.602 2c0.398 0.301-0.602 0.453-3 0.453-3.27-0.035-5.704-0.019-7.301 0.047l-39.602 1.051c-4 0-6.383-0.117-7.148-0.348l-11.852-3.25c-1.168 0.067-2.168 0.231-3 0.5-0.633 0.231-0.98 0.364-1.051 0.399l12.301 2.898c0.403 0.133 1.367 0.25 2.903 0.352 1.464 0.101 3.097 0.148 4.898 0.148l56.148-0.449 1.403-0.5z" inkscape:connector-curvature="0"/>
      <path id="path32" style="fill-rule:evenodd;fill:#c15a5a" d="m81.852 88.401 6.398 2.601c0.398 0.266-0.832 0.414-3.699 0.45-3.801-0.067-6.5-0.067-8.102 0l-39.949 0.449c-4.801 0-7.383-0.067-7.75-0.199l-12.148-3.102c-0.469-0.168 1.332-0.25 5.398-0.25l47.852-0.75c4.332 0.066 6.648 0.117 6.949 0.152 2.066 0.098 3.75 0.317 5.051 0.649zm2.847-2.051c-0.531-0.199-1.465-0.383-2.801-0.551-1.73-0.199-3.714-0.281-5.949-0.25l-66.347 0.602c-1.602 0.031-2.918 0.183-3.954 0.449-0.929 0.266-1.164 0.469-0.699 0.602l20.801 4.898c0.398 0.133 1.367 0.25 2.898 0.352 1.469 0.097 3.118 0.148 4.954 0.148l57.449-0.449c1.765 0 3.133-0.051 4.097-0.149 0.969-0.136 1.25-0.269 0.852-0.402l-11.301-5.25z" inkscape:connector-curvature="0"/>
      <path id="path34" style="fill-rule:evenodd;fill:#ebcf99" d="m68.801 90.702c1.097 0.031 4.183 0.148 9.25 0.347 0.433 0 0.648-0.281 0.648-0.847 0.035-0.536-0.097-0.883-0.398-1.051-0.567-0.332-1.465-0.535-2.699-0.602-4.368-0.332-7.852-0.515-10.454-0.547h-3.75c-3.398-0.035-4.929-0.035-4.597 0 0.5 0.133-2.715 0.266-9.653 0.399l-4.699 0.051c-5.633 0.097-8.816 0.132-9.551 0.097-0.632 0-1.449-0.047-2.449-0.148-0.73-0.067-1.418-0.082-2.051-0.051-1 0.035-1.449 0.434-1.347 1.199 0.097 0.735 0.347 1.102 0.75 1.102 0.301 0 2 0.133 5.097 0.398 3.301 0.27 5.735 0.383 7.301 0.352 1.035-0.035 2.551-0.102 4.551-0.199 2.168-0.133 3.316-0.219 3.449-0.25 1.735-0.567 3.367-0.77 4.903-0.602 0.832 0.102 1.98 0.25 3.449 0.449l2.801-0.25c4.429-0.066 7.582-0.015 9.449 0.153z" inkscape:connector-curvature="0"/>
      <path id="path36" style="fill-rule:evenodd;fill:#c15a5a" d="m68.699 91.1c4.934 0.133 7.633 0.199 8.102 0.199 1.398-0.031 1.832-0.148 1.301-0.347-0.536-0.2-1.368-0.336-2.5-0.403-4.368-0.332-7.852-0.515-10.454-0.547h-3.75c-3.398-0.035-4.929-0.035-4.597 0 0.5 0.133-2.719 0.266-9.653 0.399l-4.699 0.051c-5.633 0.097-8.816 0.132-9.551 0.097-1.867-0.133-3.367-0.199-4.5-0.199-1.5 0.035-1.449 0.199 0.153 0.5 1.5 0.332 3.051 0.551 4.648 0.652 2.903 0.164 5.117 0.231 6.653 0.2 0.964 0 2.332-0.036 4.097-0.102 1.832-0.066 2.817-0.117 2.949-0.148 0.168-0.067 2.52-0.133 7.051-0.2l14.75-0.152z" inkscape:connector-curvature="0"/>
      <path id="path38" style="fill-rule:evenodd;fill:#ffe2a8" d="m82.602 81.85v-79.098l-79.204 2.649 0.102 79.351 79.102-2.902z" inkscape:connector-curvature="0"/>
      <path id="path40" style="fill-rule:evenodd;fill:#ebcf99" d="m81.551 76.202c-1.235-0.368-3.067-0.684-5.5-0.95-4.903-0.535-10.352-0.586-16.352-0.152-8.23 0.699-13.965 1.168-17.199 1.402-5.367 0.434-10.5 0.649-15.398 0.649-4.969 0.035-10.403-0.332-16.301-1.102-2.934-0.367-5.367-0.73-7.301-1.097l-1.051 4.25c0.336-0.102 0.735-0.204 1.199-0.301 2.168-0.465 5.102-0.668 8.801-0.602 12.067 0.203 23.184-0.117 33.352-0.949 4.867-0.434 9.648-0.848 14.347-1.25 2.735-0.199 5.633-0.148 8.704 0.152 4.664 0.465 8.812 1.364 12.449 2.7l0.25-2.75zm-19.074 2.949c-11.68-0.149-20.207-0.051-25.579 0.301-4.031 0.265-9.632 0.367-16.796 0.3-3.735-0.035-8.188-0.086-13.352-0.152h-4.398l-0.551 2.199c2.035-0.5 4.633-0.816 7.801-0.949 1.796-0.066 5.464-0.098 11-0.098 13.964-0.066 25.062-0.433 33.296-1.101 3.239-0.242 6.098-0.41 8.579-0.5zm-60.125 0.449 0.097-0.398c-0.457 0.132-0.789 0.265-1 0.398h0.903z" inkscape:connector-curvature="0"/>
      <path id="path42" style="fill-rule:evenodd;fill:#ebcf99" d="m81.852 45.799c-0.704-0.164-2.036-0.23-4-0.199-3.903 0.035-8.985 0.484-15.25 1.352-9.036 1.265-14.836 2.031-17.403 2.3-4.433 0.43-8.465 0.547-12.097 0.348-2.704-0.168-7.821-0.883-15.352-2.148-6.668-1.133-10.434-1.633-11.301-1.5l-1.875 0.324c-0.113 1.812-0.183 4.144-0.199 7 1.098-0.406 2.641-0.817 4.625-1.227 4.234-0.867 8.832-1.347 13.801-1.449 3.933-0.066 8.949-0.031 15.051 0.102 5.097 0.132 8.714 0.132 10.847 0 0.235 0 4.735-0.368 13.5-1.102 6.367-0.531 10.668-0.734 12.903-0.598 3.73 0.2 6.015 0.383 6.847 0.547l-0.097-3.75zm0.25 5.801c-1.77-0.133-4.118-0.199-7.051-0.199-5.867 0-11.735 0.316-17.602 0.949-5.265 0.566-11.668 0.633-19.199 0.199-7.602-0.433-12.316-0.547-14.148-0.347-4.79 0.492-11.356 1.593-19.704 3.3-0.003 0.453-0.003 0.922 0 1.399 0.008 0.863 0.016 1.73 0.028 2.601 0.324-0.246 0.699-0.48 1.125-0.703 2.265-1.265 6.199-2.48 11.801-3.648 7.296-1.567 13.882-2.035 19.75-1.399 6.097 0.633 11.546 0.899 16.347 0.797 3.133-0.066 7.77-0.383 13.903-0.949 4.265-0.367 8.046-0.301 11.347 0.199 1.668 0.235 2.903 0.52 3.699 0.852l-0.296-3.051zm-0.801 10.199c-1.27-0.367-2.934-0.664-5-0.898-4.168-0.5-8.27-0.485-12.301 0.051-5 0.664-10.484 1.117-16.449 1.347-6.27 0.235-11.617 0.153-16.051-0.25-4.168-0.367-9.234-0.449-15.199-0.25-5.27 0.168-8.949 0.453-11.051 0.852-0.277 0.047-0.527 0.082-0.75 0.101 0.004 0.457 0.012 0.914 0.023 1.375 0.504-0.097 1.149-0.172 1.926-0.226 2.77-0.266 6.27-0.184 10.5 0.25 4.403 0.465 9.301 0.648 14.699 0.551 2.735-0.036 6.633-0.2 11.704-0.5 0.367-0.036 4.929-0.5 13.699-1.403 6.699-0.699 11.347-0.933 13.949-0.699 4.367 0.367 6.699 0.582 7 0.652l3.301 0.848v-1.801zm0.801 7.551c-9.704 0.234-16.383 0.5-20.051 0.801-2.934 0.199-6.301 0.168-10.102-0.102-4.133-0.265-8.051-0.797-11.75-1.597-3.699-0.801-10.199-1.536-19.5-2.2-9.097-0.636-14.215-0.769-15.347-0.402-0.297 0.098-0.555 0.148-0.778 0.152 0.055 2.067 0.129 4.133 0.227 6.2 2.199-1.301 4.98-2.368 8.347-3.2 4.735-1.136 9.204-1.336 13.403-0.601 5.566 1 11.066 1.832 16.5 2.5 6.535 0.801 11.648 1.148 15.347 1.051 2.704-0.102 6.653-0.286 11.852-0.551 4.199-0.168 6.949-0.133 8.25 0.101 2.102 0.364 3.398 0.684 3.898 0.95l-0.296-3.102zm-77.579-5.223c-0.414 0.078-0.738 0.172-0.972 0.274-0.067 0.367-0.035 0.699 0.097 1 0.161 0.402 0.465 0.601 0.926 0.601-0.019-0.625-0.035-1.25-0.051-1.875zm-0.125-8.625c-0.011-0.773-0.019-1.515-0.023-2.226-0.055 0.027-0.113 0.051-0.176 0.074l-0.051 2.199c0.082-0.015 0.164-0.031 0.25-0.047zm-1.398 6.047c-0.168 0.863 0.332 1.266 1.5 1.203-0.031-1.086-0.055-2.172-0.074-3.25-0.832 0.618-1.305 1.301-1.426 2.047zm1.75-17.297c-0.082 0.016-0.164 0.032-0.25 0.047-1.602 0.301-2.184 0.75-1.75 1.352l1.102 0.75 0.722-0.125c0.055-0.77 0.114-1.442 0.176-2.024zm14.301 0.547c-7.332-2.199-11.785-3.281-13.352-3.25-0.402 0.016-0.719 0.914-0.949 2.703 2.637-0.441 7.402-0.257 14.301 0.547z" inkscape:connector-curvature="0"/>
      <path id="path44" style="fill-rule:evenodd;fill:#ebcf99" d="m59.398 43.549c-0.164 0.035-3.25 0.836-9.25 2.403-3.031 0.8-7.414 1.031-13.148 0.699l-7.75-0.699 1.301 0.398 3.949 0.5c8.367 0.969 15.699 0.734 22-0.699 5.734-1.266 12-2.332 18.801-3.199 0-0.133-0.285-0.27-0.852-0.403-1.168-0.23-3.183-0.297-6.051-0.199-3 0.133-6 0.535-9 1.199z" inkscape:connector-curvature="0"/>
      <path id="path46" style="fill-rule:evenodd;fill:#ebcf99" d="m81 38.549c0.492-0.129 0.551-0.23 0.176-0.297l-0.176 0.297zm0.176-0.297 1.222-2.203c-0.929-0.097-2.117-0.097-3.546 0-2 0.133-3.301 0.235-3.903 0.301-1.832 0.199-3.648 0.535-5.449 1-1.734 0.434-3.883 0.668-6.449 0.699l-3.352-0.047 3.102 0.598c2.933 0.332 6.535 0.316 10.801-0.051 4.296-0.332 6.812-0.433 7.546-0.297h0.028z" inkscape:connector-curvature="0"/>
      <path id="path48" style="fill-rule:evenodd;fill:#ebcf99" d="m4.176 38.752c0.082-0.125 0.238-0.222 0.472-0.3 1.633-0.567 6.219-0.368 13.75 0.597 8.301 1.067 15.133 1.77 20.5 2.102 3.969 0.199 8.188 0.25 12.653 0.148 2.359-0.062 4.344-0.117 5.949-0.172-1.469 0.016-3.031 0.024-4.699 0.024-6.633-0.035-11.965-0.449-16-1.25-4.434-0.899-10.352-1.75-17.75-2.551-6.801-0.766-11.067-1.098-12.801-1l-2.949 0.152 0.875 2.25zm-0.028 0.45 0.352 0.398-0.324-0.848c-0.106 0.121-0.114 0.27-0.028 0.45z" inkscape:connector-curvature="0"/>
      <path id="path50" style="fill-rule:evenodd;fill:#ebcf99" d="m3.852 34.901c2.164-0.567 5.398-0.832 9.699-0.801 4.015 0 6.375 0.059 7.074 0.176-9.09-1.883-14.313-2.809-15.676-2.774-0.867 0.032-1.301 0.598-1.301 1.7l0.204 1.699z" inkscape:connector-curvature="0"/>
      <path id="path52" style="fill-rule:evenodd;fill:#ebcf99" d="m4.699 29.299c1.434-0.133 3.367-0.183 5.801-0.148 4.898 0.101 9.898 0.551 15 1.351 10.734 1.664 16.582 2.547 17.551 2.649 6.332 0.699 11.965 0.699 16.898 0 4.801-0.668 9.715-1.949 14.75-3.852 2.5-0.933 4.535-1.797 6.102-2.597l0.949-2.602c-1.367 0.934-3.184 1.934-5.449 3-4.535 2.102-9.102 3.402-13.699 3.902-6.235 0.7-11.321 1.067-15.25 1.098-5 0.035-9.954-0.418-14.852-1.348-16.969-3.136-26.051-4.683-27.25-4.652-0.699 0.035-1 0.566-0.898 1.602l0.347 1.597z" inkscape:connector-curvature="0"/>
      <path id="path54" style="fill-rule:evenodd;fill:#ebcf99" d="m81.898 16.502c-1.398-0.336-3.097-0.652-5.097-0.953-4.035-0.566-7.582-0.715-10.653-0.449-1.464 0.133-6.48 0.75-15.046 1.852-7.903 1.031-14.383 1.714-19.454 2.05-5.464 0.364-11.714-0.336-18.75-2.101-3.5-0.899-6.464-1.832-8.898-2.801l-0.023 5.5c0.851 0.43 2.007 0.828 3.472 1.199 4.403 1.133 10.102 1.418 17.102 0.852 5.301-0.434 13.015-1.485 23.148-3.149 8.403-1.367 14.199-2.019 17.403-1.953 6.097 0.102 11.796 0.586 17.097 1.453l-0.301-1.5zm-0.097 3.297c-1.434 0.703-3.434 1.52-6 2.453-5.168 1.864-10.633 3.348-16.403 4.45-6.265 1.164-13.015 1.683-20.25 1.55-5.964-0.101-10.914-0.566-14.847-1.402-4.367-0.965-11.133-2.867-20.301-5.699l-0.023 0.301-0.028 3.75c0.735-0.102 1.934-0.102 3.602 0 3.367 0.199 7.449 0.781 12.25 1.75 8.699 1.765 14.551 2.8 17.551 3.097 6.73 0.735 13.031 0.418 18.898-0.949 8.969-2.031 17.332-4.25 25.102-6.648l0.449-2.653zm-77.824 1.653v-1.852c-0.442-0.227-0.801-0.457-1.079-0.699l0.653 6.301 0.426-3.75z" inkscape:connector-curvature="0"/>
      <path id="path56" style="fill-rule:evenodd;fill:#ebcf99" d="m38 25.651c3.168 0.601 6.699 0.765 10.602 0.5 4.367-0.301 7.347-1.117 8.949-2.449 1.699-1.403 1.566-2.336-0.403-2.801-1.964-0.5-4.98-0.383-9.046 0.351-4.403 0.766-7.653 1.547-9.75 2.348-2.368 0.934-2.485 1.617-0.352 2.051z" inkscape:connector-curvature="0"/>
      <path id="path58" style="fill-rule:evenodd;fill:#ebcf99" d="m82.449 12.901c-0.633-0.399-1.699-0.766-3.199-1.102-3-0.73-6.648-1-10.949-0.797-8.535 0.364-14.133 0.547-16.801 0.547-6.367 0.035-10.617-0.398-12.75-1.297-2.867-1.468-4.969-2.484-6.301-3.05-2.301-1.036-4.765-1.536-7.398-1.5-4.301 0.066-9.602 0.398-15.903 1 4.836 0.031 8.868 0.25 12.102 0.648 4 0.5 8 1.418 12 2.75 3.801 1.266 8.781 2.066 14.949 2.402 4.332 0.231 8.817 0.231 13.449 0 2.836-0.168 7 0.149 12.5 0.95 4.969 0.73 7.52 1.214 7.653 1.449 0.097 0.101 0.23-0.199 0.398-0.899 0.102-0.367 0.184-0.734 0.25-1.101z" inkscape:connector-curvature="0"/>
      <path id="path60" style="fill-rule:evenodd;fill:#ebcf99" d="m81.75 8.002c-4.199-0.066-9.934 0.047-17.199 0.348-4.934 0.234-10.067 0-15.403-0.699-4.398-0.602-7.648-1.285-9.75-2.051-1.398-0.5-2.648-0.633-3.75-0.398l-1.199 0.55c2.965 1.465 5.301 2.414 7 2.848 4.5 1.199 9.918 1.582 16.25 1.152 6.235-0.433 12.133-0.468 17.699-0.101 2.801 0.199 4.969 0.433 6.5 0.699l-0.148-2.348z" inkscape:connector-curvature="0"/>
      <path id="path62" style="fill-rule:evenodd;fill:#ebcf99" d="m51.199 5.252c2.106 0.348 3.559 0.582 4.352 0.7 6.699 1.066 11.168 1.449 13.398 1.148 2.332-0.301 4.27-0.883 5.801-1.75 0.734-0.465 1.25-0.883 1.551-1.25l-3.102-0.648c-0.867 0.531-1.933 1.082-3.199 1.648-2.531 1.102-4.816 1.668-6.852 1.699-2.031 0.035-4.082-0.347-6.148-1.148l-2.551-1.149c-0.5 0.133-1.051 0.282-1.648 0.45-0.688 0.156-1.223 0.257-1.602 0.3z" inkscape:connector-curvature="0"/>
      <path id="path64" style="fill-rule:evenodd;fill:#ebcf99" d="m24.301 72.502c1.832 0.5 2.183 1.067 1.051 1.7-1.137 0.632-3.168 0.867-6.102 0.699-2.832-0.133-5-0.567-6.5-1.301-0.699-0.332-0.566-0.617 0.398-0.848 0.668-0.136 2.336-0.351 5-0.652 2.336-0.234 4.383-0.098 6.153 0.402zm4.5-0.203c-0.403-1.832-2.668-2.617-6.801-2.347-4.633 0.3-8.281 0.964-10.949 2-2.77 1.066-2.77 1.933 0 2.597 2.465 0.602 4.566 1 6.301 1.203 2.73 0.332 5.265 0.317 7.597-0.05 2.969-0.434 4.25-1.567 3.852-3.403z" inkscape:connector-curvature="0"/>
      <path id="path66" style="fill-rule:evenodd;fill:#ebcf99" d="m10.801 9.401c-4.465 0.301-6.051 0.898-4.75 1.801 2.398 1.632 5.949 2.867 10.648 3.699 4.903 0.867 8.903 0.883 12 0.051 3.035-0.836 3.582-2.02 1.653-3.551-1.903-1.465-4.52-2.215-7.852-2.25-5.469 0-9.367 0.082-11.699 0.25zm3.949 3.551c-1.668-0.434-3.133-0.868-4.398-1.301-0.969-0.399 0.531-0.668 4.5-0.801 3.964-0.133 7.046-0.016 9.25 0.352 2.199 0.367 3.132 0.914 2.796 1.648-0.296 0.699-1.664 1.102-4.097 1.199-2.035 0.102-4.715-0.265-8.051-1.097z" inkscape:connector-curvature="0"/>
      <path id="path68" style="fill-rule:evenodd;fill:#b59c6f" d="m73.699 84.502c2.035-0.836 3.449-1.336 4.25-1.5 2.5-0.535 3.633-1.234 3.403-2.101-0.036-0.102-0.219-0.449-0.551-1.051-0.27-0.434-0.332-0.781-0.199-1.051 0.332-0.633 0.296-1.449-0.102-2.449-0.367-1.066-0.602-1.184-0.699-0.348-0.102 0.7-0.633 1.282-1.602 1.75-0.867 0.399-1.949 0.649-3.25 0.75-1.566 0.098-22.398 0.481-62.5 1.149-1.035 0-1.715-0.699-2.051-2.102-0.199-0.73-0.347-2.316-0.449-4.75-0.097-1.965-0.168-9.75-0.199-23.347-0.031-15.168 0.031-26.918 0.199-35.25 0.035-1.434 0.215-2.633 0.551-3.602 0.332-0.898 0.699-1.383 1.102-1.449l1.199-2.149c-3-0.234-4.949-0.3-5.852-0.203-0.898 0.102-2.683 1.086-5.347 2.953l0.847 27.25 0.301 39.45 3.852 8.199c33.898-0.102 54.015-0.051 60.347 0.148 3.735 0.133 5.985 0.035 6.75-0.297z" inkscape:connector-curvature="0"/>
      <path id="path70" style="fill-rule:evenodd;fill:#fff2d1" d="m81.449 13.549v61.953c0 1.664-0.582 3.114-1.75 4.348-1.199 1.199-2.633 1.832-4.301 1.902l-61.398 1.598c-1.668 0.035-3.102-0.516-4.301-1.648-1.168-1.168-1.75-2.602-1.75-4.301v-61.949c0-1.668 0.582-3.118 1.75-4.352s2.582-1.867 4.25-1.898l61.449-1.602c1.633-0.066 3.051 0.5 4.25 1.699 1.168 1.168 1.77 2.586 1.801 4.25zm0.403-5.75c0-1.297 0.046-2.73 0.148-4.297-0.133-0.933-1.031-1.386-2.699-1.351l-69.903 1.75c-1.929 0.035-3.617 0.801-5.046 2.301-1.438 1.5-2.153 3.214-2.153 5.148l0.301 70.801c0 1.765 0.699 2.949 2.102 3.551 1 0.464 2.648 0.664 4.949 0.597l64.801-2c2.898-0.066 4.632-0.183 5.199-0.347 1.535-0.434 2.301-1.485 2.301-3.153v-73z" inkscape:connector-curvature="0"/>
      <path id="path72" style="fill-rule:evenodd;fill:#c7b48d" d="m3.199 60.502c-0.097 1 0.184 7 0.852 18l1 3.649 5.301 3 2.046-2c-1.296-0.301-2.367-0.985-3.199-2.051s-1.25-2.301-1.25-3.699v-61.949c0-2.168 0.883-3.883 2.653-5.153-0.77-0.23-1.301-0.648-1.602-1.25-0.332-0.664-0.281-1.449 0.148-2.347 0.301-0.536 0.352-1.067 0.153-1.602-0.168-0.465-0.5-0.832-1-1.098-2 0.399-3.617 1.516-4.852 3.348l-0.097 0.301c-0.469 2.5-0.618 11.883-0.454 28.148 0.102 8.168 0.204 16.403 0.301 24.703z" inkscape:connector-curvature="0"/>
      <path id="path74" style="fill-rule:evenodd;fill:#ebcf99" d="m79.449 73.502c0 1.731-0.617 3.348-1.847 4.848-1.301 1.602-2.77 2.418-4.403 2.449l-61.847 1.5c-1.633 0.035-3.133-0.664-4.5-2.097-1.336-1.434-2-3-2-4.7l0.699-62.703c-0.035-1.597 0.617-2.933 1.949-4 1.234-1 2.719-1.531 4.449-1.597l61.449-1.602c1.633-0.066 3.051 0.5 4.25 1.699 1.168 1.168 1.77 2.586 1.801 4.25v61.953zm3.25 9.5c1.27-1.402 1.903-3.066 1.903-5l-0.153-71.3c0-1.903-0.715-3.485-2.148-4.75-1.367-1.27-3.035-1.868-5-1.801l-69.903 1.75c-1.929 0.035-3.617 0.801-5.046 2.301-1.438 1.5-2.153 3.214-2.153 5.148l0.301 70.801c0 1.933 0.684 3.566 2.051 4.898 1.332 1.301 2.965 1.934 4.898 1.903l70.5-1.801c1.903-0.067 3.485-0.785 4.75-2.149z" inkscape:connector-curvature="0"/>
      <path id="path76" style="fill-rule:evenodd;fill:#ae5151" d="m3.801 40.002c0.867-0.07 1.265 0.133 1.199 0.598-0.168 0.266-0.566 0.402-1.199 0.402v-1zm-0.653 8.848c0.235-0.066 0.434-0.051 0.602 0.051 0.102 0.031 0.234 0.117 0.398 0.25-0.132 0.699-0.347 1.101-0.648 1.199-0.301-0.266-0.418-0.766-0.352-1.5zm0.801 2.652c-0.066 0.231-0.215 0.348-0.449 0.348-0.031-0.398 0.082-0.684 0.352-0.848 0.132 0.133 0.164 0.297 0.097 0.5zm-1.949-0.8c0 0.3-0.148 0.531-0.449 0.699-0.301 0.199-0.582 0.199-0.852 0v-0.5c0.133-0.035 0.367-0.117 0.699-0.25 0.27-0.102 0.469-0.082 0.602 0.051zm-0.5 1.699c0.133-0.102 0.332-0.25 0.602-0.449 0.296-0.168 0.546-0.153 0.75 0.05 0.031 0.266-0.153 0.45-0.551 0.547-0.403 0.102-0.668 0.051-0.801-0.148zm0 6.648c-0.234 0.067-0.449 0.051-0.648-0.047-0.133-0.035-0.301-0.117-0.5-0.25 0.097-0.5 0.48-0.785 1.148-0.851 0.133 0.101 0.199 0.281 0.199 0.551 0 0.3-0.066 0.5-0.199 0.597zm77.949 18.5c0.133 0.168 0.199 0.418 0.199 0.75 0 0.403-0.117 0.602-0.347 0.602-0.168-0.168-0.219-0.399-0.153-0.699 0.036-0.301 0.133-0.52 0.301-0.653zm-1.801 0.75c-1.199 1.203-2.632 1.836-4.296 1.903l-61.801 1.597c-1.668 0.035-3.102-0.515-4.301-1.648-1.168-1.168-1.75-2.602-1.75-4.301v-7.949c-1.102-0.067-1.883 0.367-2.352 1.301-0.664 0-1.046-0.051-1.148-0.153 0.066-0.898 0.449-1.683 1.148-2.347 0.704-0.7 1.485-1.067 2.352-1.102v-16.148c-0.266-0.235-0.383-0.567-0.352-1l0.352-0.051-0.051-34.899c0-0.535 0.117-1.187 0.352-1.953-1.235 0.703-2.285 1.117-3.153 1.25-0.566-0.199-0.816-0.648-0.75-1.347 0.036-0.536 0.235-1.086 0.602-1.653-0.102-0.531-0.398-0.949-0.898-1.25-0.102-0.066-0.602-0.281-1.5-0.648-0.071 0.265-0.102 0.648-0.102 1.148v8.953l1.148 1-1.148 0.098v41.051c0.301 0.465 0.301 0.867 0 1.199v19.25c0 1.934 0.684 3.566 2.051 4.902 1.367 1.332 3.015 1.981 4.949 1.95l70.949-1.852c1.934-0.066 3.567-0.801 4.903-2.199 1.367-1.399 2.046-3.067 2.046-5v-6c-0.429-0.067-0.816-0.168-1.148-0.301 0.168-0.531 0.551-0.832 1.148-0.898v-21.75c-0.296-0.536-0.679-0.985-1.148-1.352-0.199 0.035-0.484 0.199-0.852 0.5-0.296 0.266-0.632 0.383-1 0.352-0.066-0.368 0-0.7 0.204-1 0.199-0.336 0.296-0.618 0.296-0.852-0.066-0.168-0.265-0.383-0.597-0.648-0.301-0.27-0.485-0.536-0.551-0.801 0.801-0.469 1.031-1.082 0.699-1.852-0.699-1.633-1.051-2.465-1.051-2.5-0.066-0.433-0.23-1.031-0.5-1.797-0.199-0.636-0.296-1.136-0.296-1.5 0.765 0.231 1.382 1.43 1.847 3.598 0.567 2.5 1 3.949 1.301 4.352 0.332 0.398 0.883 0.632 1.648 0.699v-15.551l-0.449-0.199v-0.352c0-0.398-0.066-0.664-0.199-0.797-0.031-0.07-0.102-0.152-0.199-0.25 0-1.57-0.082-2.519-0.25-2.851-0.133-0.266-0.235-0.317-0.301-0.149-0.102 0.133-0.082 0.348 0.051 0.649 0.097 0.234 0.082 0.75-0.051 1.551-0.133 0.699-0.301 1.316-0.5 1.847l-0.199-0.047c0.199-1.203 0.301-1.851 0.301-1.953 0-0.297-0.102-0.465-0.301-0.5-0.27-0.031-0.434-0.082-0.5-0.148-0.102-0.133-0.102-0.399 0-0.801 0.133-0.531 0.183-0.934 0.148-1.199-0.031-0.332-0.133-0.449-0.301-0.352-0.5 0.301-0.765 0.453-0.796 0.453-0.27-0.07-0.52-0.019-0.75 0.149l-0.5 0.25c0.132 0.668 0.214 1.301 0.25 1.898 0.031 0.403 0.015 0.684-0.051 0.852-0.168 0.234-0.332 0.484-0.5 0.75-0.235 0.301-0.168 0.668 0.199 1.101l-0.25 0.149c0 0.168 0.051 0.601 0.148 1.301 0.071 0.5 0.02 0.898-0.148 1.199h-0.352v40.301c0 1.664-0.582 3.117-1.75 4.347zm1.954 6.25c-0.102-0.164-0.168-0.515-0.204-1.047 0-0.57-0.031-0.937-0.097-1.101 0.531-0.301 0.933-0.016 1.199 0.851 0.234 0.832-0.066 1.266-0.898 1.297z" inkscape:connector-curvature="0"/>
      <path id="path78" style="fill-rule:evenodd;fill:#ae5151" d="m8.949 6.151c-0.23 0.101-0.418 0.101-0.551 0l-0.296-0.301c0.031-0.133 0.164-0.484 0.398-1.051 0.066-0.199 0.234-0.297 0.5-0.297l-0.25 0.45c0.266 0.464 0.332 0.867 0.199 1.199zm4.449-2.949c0.204 0.199 0.204 0.433 0 0.699-0.164 0.234-0.382 0.383-0.648 0.449-0.199-0.234-0.234-0.5-0.102-0.801 0.133-0.297 0.383-0.414 0.75-0.347zm67.5 3.5c0.071 0.464 0.02 0.832-0.148 1.097h-0.5v-1.148c0.031-0.434 0.148-0.719 0.352-0.852 0.164 0.235 0.265 0.535 0.296 0.903zm-2.949-1.2c-0.332-0.269-0.73-0.468-1.199-0.601 0.102-0.235 0.367-0.602 0.801-1.102l0.148 0.203c0.235 0.164 0.434 0.5 0.602 1l-0.352 0.5zm1.801 4.45c0.398 0.699 0.352 1.148-0.148 1.347-0.235-0.832-0.184-1.281 0.148-1.347zm-21-5.25c-0.367-0.633-0.434-1.086-0.199-1.352 0.367-0.031 0.648 0.016 0.847 0.152-0.199 0.664-0.414 1.067-0.648 1.2zm23.648 19.847c0.27 0.367 0.536 0.653 0.801 0.852 0.434 0.301 0.77 0.183 1-0.352 0.168-0.433 0.199-0.867 0.102-1.297l-0.153-0.3 0.704-0.2v-11.101l-0.153-0.301 0.153-0.148v-4.852c0-1.531-0.454-2.898-1.352-4.098-0.867-1.203-2-2.019-3.398-2.453l-0.204 1.051c-0.699-0.199-1.296-0.281-1.796-0.25l0.25-1.098-66.852 1.7-0.25 0.05h-1.25c-0.031 0.766 0 1.383 0.102 1.848-0.368 0.035-0.571 0.051-0.602 0.051s-0.117-0.25-0.25-0.75c-0.168-0.567-0.551-0.899-1.148-1-0.469-0.067-1.219 0-2.25 0.199-0.801 0.168-1.618 0.566-2.454 1.199-0.664 0.5-1.097 0.934-1.296 1.301-0.133 0.668-0.368 1.168-0.704 1.5-0.199 0.234-0.23 0.469-0.097 0.699 0.199 0.235 0.316 0.403 0.347 0.5 0.036 0.035 0.27 0.352 0.704 0.953 0.097 0.133 0.312 0.133 0.648 0 0.5-0.269 0.852-0.418 1.051-0.453 0.367-0.097 0.668-0.082 0.898 0.051 0.27 0.168 0.485 0.316 0.653 0.449 0.199 0.067 0.382 0.086 0.546 0.051-0.429 0.535-0.664 1.102-0.699 1.699 0.067 0.203 0.301 0.418 0.699 0.653 0.5-1.036 1.235-1.852 2.204-2.45 0.964-0.636 2.031-0.968 3.199-1l20.5-0.55 0.051-0.653 0.347 0.653 12.051-0.352c0-0.531 0.117-0.801 0.352-0.801 0 0.067 0.117 0.153 0.347 0.25 0.168 0.067 0.219 0.203 0.153 0.403-0.125 0.093-0.274 0.14-0.454 0.148l28.403-0.699c1.668-0.067 3.097 0.484 4.301 1.648 1.199 1.168 1.796 2.602 1.796 4.301v5.652c0.133-1.336 0.368-2.652 0.704-3.953l0.949 0.5c-0.27 0.403-0.367 0.953-0.301 1.653 0.102 1.097 0.148 1.765 0.148 2l-0.699 2.398c-0.265 0.902-0.082 1.602 0.551 2.102-0.168 0.73-0.25 1.214-0.25 1.449 0 0.465 0.199 0.816 0.602 1.051l-0.653 0.449c-0.265 0.199-0.449 0.398-0.551 0.601 0.403 0.133 0.836 0.063 1.301-0.203 0.27-0.164 0.668-0.414 1.199-0.75z" inkscape:connector-curvature="0"/>
      <path id="path80" style="fill-rule:evenodd;fill:#b59c6f" d="m67 20.952c0.867-0.067 1.5 0.031 1.898 0.3 0.403 0.297 0.219 0.481-0.546 0.547-0.403 0.035-0.918-0.082-1.551-0.347-0.633-0.27-0.567-0.434 0.199-0.5zm2.852 4.097c-0.735 0.067-1.5-0.082-2.301-0.449-0.602-0.234-1.082-0.516-1.449-0.848-0.469-0.367-0.719-0.586-0.75-0.652-0.133-0.234 0.117-0.383 0.75-0.449 0.398-0.035 0.699 0.035 0.898 0.199 0.199 0.199 0.781 0.266 1.75 0.199 0.867-0.066 1.633-0.23 2.301-0.5 0.367-0.164 0.683-0.133 0.949 0.102 0.367 0.332 0.281 0.801-0.25 1.398-0.5 0.602-1.133 0.934-1.898 1zm-8.25 11.903c0.23 0.031 0.449 0.05 0.648 0.05 0.168 0 0.332 0.184 0.5 0.547 0.199 0.5 0.082 1.133-0.352 1.903-0.464 0.867-1.097 1.347-1.898 1.449-0.531 0.101-0.918 0.035-1.148-0.199-0.235-0.27-0.071-0.668 0.5-1.2 0.429-0.402 0.796-0.984 1.097-1.75 0.235-0.57 0.449-0.836 0.653-0.8zm-33.653-17.102c-0.465-0.566-0.535-0.898-0.199-1l0.199-0.5c0.067-0.168 0.449-0.051 1.153 0.352 0.867 0.5 1.347 0.914 1.449 1.25 0.133 0.332-0.102 0.531-0.699 0.597-0.766 0.102-1.403-0.133-1.903-0.699zm-2.199 7.551 0.551 1.051c-0.699-0.801-1.301-1.286-1.801-1.45-0.199-0.066-0.199-0.183 0-0.351 0.102-0.067 0.219-0.133 0.352-0.199 0.265 0.066 0.566 0.382 0.898 0.949zm20 16.851c-0.766 1.5-1.219 2.383-1.352 2.649-0.73 1.101-1.429 1.648-2.097 1.648-0.699 0-1.418-0.847-2.153-2.547-0.367-0.902-0.73-1.968-1.097-3.203-0.067-0.297-0.352-1.133-0.852-2.5-0.433-1.297-0.648-2.148-0.648-2.547 0-0.468 0.199-0.785 0.597-0.953-0.367-1.133-0.414-1.867-0.148-2.199 0.168-0.234 0.219-0.5 0.148-0.801 0-0.097 0.118-0.066 0.352 0.102 0.332 0.168 0.551 0.383 0.648 0.648 0.071 0.168 0.102 0.469 0.102 0.903 0 0.097 0.133 0.48 0.398 1.148h5.903c0.867 0 1.433 0.035 1.699 0.102 0.801 0.132 1.199 0.464 1.199 1 0 0.898-0.898 3.082-2.699 6.55zm5.5 18.45c0.566 1.031 0.566 1.597 0 1.699-2.199 0.332-2.949 0.234-2.25-0.301 0.566-0.465 1.316-0.934 2.25-1.398zm-2.898 5.75c0.164-0.168 0.382-0.336 0.648-0.5 0.266-0.168 0.516-0.368 0.75-0.602 0.199-0.234 0.398-0.566 0.602-1 0.199-0.266 0.449-0.215 0.75 0.152 0.199 0.2 0.414 0.532 0.648 1 1.602-1.734 3.469-4.636 5.602-8.703 0.664-1.23 2.949-6.316 6.847-15.25 4-9.164 6.617-15.332 7.852-18.5 0.801-2.133 2.133-3.5 4-4.097 1.5-0.5 2.25-1.485 2.25-2.95 0-2.535-1.852-4.218-5.551-5.05-1.801-0.403-4.551-0.602-8.25-0.602-6.133 0-10.168 0.219-12.102 0.652-2.929 0.664-4.398 2.149-4.398 4.45 0 1.367 0.734 2.367 2.199 3 1.469 0.632 2.199 1.382 2.199 2.25 0 1.8-0.781 2.914-2.347 3.347-1.434 0.403-5.117 0.602-11.051 0.602-2.199 0-3.668-0.184-4.398-0.551-1.071-0.566-1.602-1.75-1.602-3.551 0-0.797 0.332-1.383 1-1.75-0.199-0.332-0.367-0.699-0.5-1.097l-0.898-0.7c0.164-0.668 0.414-0.769 0.75-0.3 0.699 0.73 1.214 1.316 1.546 1.75 0.938-0.336 1.551-0.618 1.852-0.852 0.602-0.531 0.898-1.316 0.898-2.348 0-3.269-3.562-4.902-10.699-4.902-4.668 0-7.816 0.469-9.449 1.402-1.168 0.664-1.75 1.782-1.75 3.348 0 1.434 0.734 2.484 2.199 3.152 1.965 0.899 3.215 1.715 3.75 2.45 0.699 0.933 1.465 2.316 2.301 4.148 0.168 0.402 0.801 1.902 1.898 4.5l4.551 11.102c1.699 4.3 2.832 7.382 3.403 9.25 1.164 3.765 1.75 7.05 1.75 9.847 0 3 0.648 5.336 1.949 7 1.465 1.867 3.73 2.801 6.801 2.801 1.832 0 3.597-0.633 5.296-1.898-1.097-0.403-1.531-0.735-1.296-1z" inkscape:connector-curvature="0"/>
      <path id="path82" style="fill-rule:evenodd;fill:#fff2d1" d="m60.898 48.502c4-9.136 6.618-15.3 7.852-18.5 0.801-2.136 2.168-3.5 4.102-4.101 1.5-0.465 2.214-1.434 2.148-2.899-0.133-3.601-1.918-6.035-5.352-7.3-1.867-0.7-4.464-1.051-7.796-1.051-5.235 0-9.383 0.668-12.454 2-3.132 1.367-4.699 3.285-4.699 5.75 0 1.398 0.735 2.418 2.199 3.051 1.469 0.632 2.204 1.382 2.204 2.25 0 1.765-0.786 2.867-2.352 3.3-1.469 0.434-5.148 0.649-11.051 0.649-2.199 0-3.668-0.199-4.398-0.602-1.067-0.531-1.602-1.715-1.602-3.547 0-0.968 0.785-1.718 2.352-2.25 1.535-0.5 2.301-1.5 2.301-3 0-3.3-3.571-4.953-10.704-4.953-4.664 0-7.812 0.469-9.449 1.403-1.168 0.699-1.75 1.832-1.75 3.398 0 1.402 0.735 2.434 2.199 3.102 1.969 0.898 3.219 1.73 3.75 2.5 0.704 0.933 1.469 2.316 2.301 4.148 0.102 0.234 0.735 1.734 1.903 4.5l4.5 11.102c1.632 4.066 2.781 7.148 3.449 9.25 1.168 3.765 1.75 7.05 1.75 9.847 0 3 0.648 5.336 1.949 7 1.469 1.867 3.719 2.801 6.75 2.801 2.766 0 5.383-1.418 7.852-4.25 1.5-1.734 3.23-4.5 5.199-8.301 0.668-1.23 2.949-6.332 6.847-15.297zm-19.796 3.348c-0.735 1.102-1.434 1.652-2.102 1.652-0.699 0-1.418-0.851-2.148-2.55-0.102-0.2-0.469-1.27-1.102-3.2-0.066-0.3-0.352-1.136-0.852-2.5-0.429-1.3-0.648-2.136-0.648-2.5 0-0.601 0.332-0.968 1-1.101 0.168-0.035 0.699-0.051 1.602-0.051h5.398c0.867 0 1.434 0.016 1.699 0.051 0.801 0.168 1.199 0.5 1.199 1 0 0.535-0.367 1.633-1.097 3.301-0.567 1.265-1.102 2.347-1.602 3.25-0.765 1.5-1.215 2.382-1.347 2.648z" inkscape:connector-curvature="0"/>
      <path id="path84" style="fill-rule:evenodd;fill:#c7b48d" d="m45.699 57.651-1.347 10.801c-0.903 2.164-1.168 3.867-0.801 5.097 0.433 1.469 1.715 1.469 3.847 0 2-1.867 4.219-5.117 6.653-9.75 0.668-1.23 2.949-6.332 6.847-15.297 4-9.136 6.618-15.3 7.852-18.5 0.602-1.636 1.484-2.8 2.648-3.5-1.832-0.734-2.898-1.683-3.199-2.851-0.433-1.602 0.352-2.266 2.352-2 2.265 0.265 3.73 1.101 4.398 2.5 0.067-0.465 0.082-0.852 0.051-1.149-0.168-4.769-3.219-7.484-9.148-8.152-1.403 1.734-4.286 5.469-8.653 11.199l-6.148 8.102-5.352 23.5z" inkscape:connector-curvature="0"/>
      <path id="path86" style="fill-rule:evenodd;fill:#ffe2a8" d="m58.898 45.502c4-9.136 6.618-15.3 7.852-18.5 0.801-2.136 2.133-3.5 4-4.101 1.5-0.465 2.25-1.434 2.25-2.899 0-2.535-1.852-4.234-5.551-5.101-1.801-0.399-4.551-0.602-8.25-0.602-6.097 0-10.133 0.219-12.097 0.653-2.938 0.699-4.403 2.183-4.403 4.449 0 1.398 0.735 2.418 2.199 3.051 1.469 0.632 2.204 1.382 2.204 2.25 0 1.765-0.786 2.867-2.352 3.3-1.469 0.434-5.148 0.649-11.051 0.649-2.199 0-3.668-0.199-4.398-0.602-1.067-0.531-1.602-1.715-1.602-3.547 0-0.968 0.785-1.718 2.352-2.25 1.535-0.5 2.301-1.5 2.301-3 0-3.3-3.571-4.953-10.704-4.953-4.664 0-7.812 0.469-9.449 1.403-1.168 0.699-1.75 1.832-1.75 3.398 0 1.402 0.735 2.434 2.199 3.102 1.969 0.898 3.219 1.73 3.75 2.5 0.704 0.933 1.469 2.316 2.301 4.148 0.102 0.234 0.735 1.734 1.903 4.5l4.5 11.102c1.632 4.066 2.781 7.148 3.449 9.25 1.168 3.765 1.75 7.05 1.75 9.847 0 3 0.648 5.336 1.949 7 1.469 1.867 3.719 2.801 6.75 2.801 2.766 0 5.383-1.418 7.852-4.25 1.5-1.734 3.23-4.5 5.199-8.301 0.668-1.23 2.949-6.332 6.847-15.297zm-25.148-0.75c-0.066-0.3-0.352-1.136-0.852-2.5-0.429-1.3-0.648-2.136-0.648-2.5 0-0.601 0.332-0.968 1-1.101 0.168-0.035 0.699-0.051 1.602-0.051h5.398c0.867 0 1.434 0.016 1.699 0.051 0.801 0.168 1.199 0.5 1.199 1 0 0.535-0.367 1.633-1.097 3.301-0.567 1.265-1.102 2.347-1.602 3.25-0.765 1.5-1.215 2.382-1.347 2.648-0.735 1.102-1.438 1.652-2.102 1.652-0.699 0-1.418-0.851-2.148-2.55-0.102-0.2-0.469-1.27-1.102-3.2z" inkscape:connector-curvature="0"/>
      <path id="path88" style="fill-rule:evenodd;fill:#ae5151" d="m61.5 23.401c-0.668-0.266-0.602-0.418 0.199-0.449 0.867-0.067 1.5 0.031 1.903 0.3 0.398 0.266 0.214 0.43-0.551 0.5-0.367 0.067-0.883-0.05-1.551-0.351zm-0.699 1.199c0.398-0.031 0.699 0.051 0.898 0.25s0.785 0.266 1.75 0.199c0.867-0.066 1.633-0.25 2.301-0.547 0.398-0.168 0.719-0.136 0.949 0.098 0.367 0.332 0.285 0.801-0.25 1.402-0.5 0.598-1.133 0.93-1.898 1-1.301 0.098-2.551-0.32-3.75-1.25-0.5-0.437-0.75-0.668-0.75-0.703-0.133-0.23 0.117-0.383 0.75-0.449zm-3.699 16.801c-0.469 0.867-1.102 1.367-1.903 1.5-0.531 0.101-0.918 0.015-1.148-0.25-0.235-0.266-0.067-0.649 0.5-1.149 0.433-0.402 0.801-0.984 1.097-1.75 0.235-0.57 0.454-0.836 0.653-0.8 0.23 0.031 0.449 0.031 0.648 0 0.168 0.031 0.332 0.214 0.5 0.55 0.199 0.5 0.082 1.133-0.347 1.899zm-32.551-18.899c-0.77 0.098-1.403-0.136-1.903-0.703-0.464-0.566-0.531-0.898-0.199-1l0.199-0.449c0.071-0.168 0.454-0.051 1.153 0.352 0.867 0.464 1.347 0.867 1.449 1.199 0.133 0.332-0.102 0.531-0.699 0.601zm-5 5.899c0.265 0.101 0.566 0.433 0.898 1l0.551 1.051c-0.668-0.836-1.266-1.336-1.801-1.5-0.199-0.036-0.199-0.133 0-0.301 0.102-0.102 0.219-0.184 0.352-0.25zm17.449 22.101c-0.699 0-1.418-0.851-2.148-2.55-0.102-0.2-0.469-1.27-1.102-3.2-0.066-0.3-0.352-1.136-0.852-2.5-0.429-1.3-0.648-2.136-0.648-2.5 0-0.468 0.199-0.785 0.602-0.953-0.368-1.133-0.418-1.883-0.153-2.25 0.168-0.23 0.219-0.48 0.153-0.75 0-0.097 0.117-0.082 0.347 0.051 0.332 0.199 0.551 0.434 0.653 0.699 0.062 0.133 0.097 0.418 0.097 0.852 0 0.133 0.133 0.531 0.403 1.199h5.898c0.867 0 1.434 0.016 1.699 0.051 0.801 0.168 1.199 0.5 1.199 1 0 0.531-0.367 1.633-1.097 3.301-0.567 1.265-1.102 2.347-1.602 3.25-0.765 1.5-1.215 2.382-1.347 2.648-0.735 1.102-1.434 1.652-2.102 1.652zm8.949 15.848c-2.23 0.402-2.98 0.316-2.25-0.25 0.567-0.465 1.317-0.934 2.25-1.398 0.567 1 0.567 1.55 0 1.648zm-6.949 7c1.898 0 3.684-0.648 5.352-1.949-1.133-0.332-1.571-0.649-1.301-0.949 0.168-0.168 0.383-0.336 0.648-0.5 0.27-0.2 0.52-0.418 0.75-0.653 0.199-0.23 0.403-0.566 0.602-1 0.199-0.23 0.449-0.183 0.75 0.153l0.648 1.05c1.535-1.703 3.403-4.601 5.602-8.703 0.668-1.23 2.949-6.332 6.847-15.297 4-9.136 6.618-15.3 7.852-18.5 0.801-2.136 2.133-3.5 4-4.101 1.5-0.469 2.25-1.434 2.25-2.899 0-2.535-1.852-4.234-5.551-5.101-1.801-0.399-4.551-0.602-8.25-0.602-6.097 0-10.133 0.219-12.097 0.653-2.938 0.699-4.403 2.183-4.403 4.449 0 1.398 0.735 2.418 2.199 3.051 1.469 0.632 2.204 1.382 2.204 2.25 0 1.765-0.786 2.867-2.352 3.3-1.469 0.43-5.148 0.649-11.051 0.649-2.199 0-3.668-0.199-4.398-0.602-1.067-0.531-1.602-1.715-1.602-3.547 0-0.769 0.332-1.336 1-1.703-0.199-0.367-0.367-0.75-0.5-1.148l-0.898-0.699c0.168-0.633 0.418-0.719 0.75-0.25 0.699 0.73 1.215 1.316 1.551 1.75 0.929-0.336 1.546-0.618 1.847-0.852 0.602-0.531 0.903-1.316 0.903-2.348 0-3.3-3.571-4.953-10.704-4.953-4.664 0-7.816 0.469-9.449 1.403-1.168 0.699-1.75 1.832-1.75 3.398 0 1.402 0.735 2.434 2.199 3.102 1.969 0.898 3.219 1.73 3.75 2.5 0.704 0.933 1.469 2.316 2.301 4.148 0.102 0.234 0.735 1.734 1.903 4.5l4.5 11.102c1.632 4.066 2.781 7.148 3.449 9.25 1.168 3.765 1.75 7.05 1.75 9.847 0 3 0.648 5.336 1.949 7 1.469 1.867 3.719 2.801 6.75 2.801z" inkscape:connector-curvature="0"/>
    </g>
  </g>
<metadata><rdf:RDF><cc:Work><dc:format>image/svg+xml</dc:format><dc:type rdf:resource="http://purl.org/dc/dcmitype/StillImage"/><cc:license rdf:resource="http://creativecommons.org/licenses/publicdomain/"/><dc:publisher><cc:Agent rdf:about="http://openclipart.org/"><dc:title>Openclipart</dc:title></cc:Agent></dc:publisher></cc:Work><cc:License rdf:about="http://creativecommons.org/licenses/publicdomain/"><cc:permits rdf:resource="http://creativecommons.org/ns#Reproduction"/><cc:permits rdf:resource="http://creativecommons.org/ns#Distribution"/><cc:permits rdf:resource="http://creativecommons.org/ns#DerivativeWorks"/></cc:License></rdf:RDF></metadata></svg>
